<mxfile host="app.diagrams.net" modified="2024-05-22T14:45:49.450Z" agent="Mozilla/5.0 (Windows NT 10.0; Win64; x64) AppleWebKit/537.36 (KHTML, like Gecko) Chrome/121.0.0.0 Safari/537.36" etag="2pLq_BZT3WLBIWKxJq4a" version="24.4.6" type="device">
  <diagram name="Página-1" id="mab60y0g9BIxzLfjdxpM">
    <mxGraphModel dx="1434" dy="782" grid="1" gridSize="10" guides="1" tooltips="1" connect="1" arrows="1" fold="1" page="1" pageScale="1" pageWidth="827" pageHeight="1169" math="0" shadow="0">
      <root>
        <mxCell id="0" />
        <mxCell id="1" parent="0" />
        <mxCell id="9ZjnTT0w3MI4GpvlhG_B-3" style="edgeStyle=orthogonalEdgeStyle;rounded=0;orthogonalLoop=1;jettySize=auto;html=1;exitX=1;exitY=0.5;exitDx=0;exitDy=0;" edge="1" parent="1" source="9ZjnTT0w3MI4GpvlhG_B-1" target="9ZjnTT0w3MI4GpvlhG_B-2">
          <mxGeometry relative="1" as="geometry" />
        </mxCell>
        <mxCell id="9ZjnTT0w3MI4GpvlhG_B-1" value="Inicio" style="ellipse;whiteSpace=wrap;html=1;" vertex="1" parent="1">
          <mxGeometry x="30" y="40" width="120" height="80" as="geometry" />
        </mxCell>
        <mxCell id="9ZjnTT0w3MI4GpvlhG_B-11" style="edgeStyle=orthogonalEdgeStyle;rounded=0;orthogonalLoop=1;jettySize=auto;html=1;exitX=0.25;exitY=1;exitDx=0;exitDy=0;entryX=0.75;entryY=0;entryDx=0;entryDy=0;" edge="1" parent="1" source="9ZjnTT0w3MI4GpvlhG_B-2" target="9ZjnTT0w3MI4GpvlhG_B-10">
          <mxGeometry relative="1" as="geometry" />
        </mxCell>
        <mxCell id="9ZjnTT0w3MI4GpvlhG_B-14" style="edgeStyle=orthogonalEdgeStyle;rounded=0;orthogonalLoop=1;jettySize=auto;html=1;exitX=0.75;exitY=1;exitDx=0;exitDy=0;entryX=0.25;entryY=0;entryDx=0;entryDy=0;" edge="1" parent="1" source="9ZjnTT0w3MI4GpvlhG_B-2" target="9ZjnTT0w3MI4GpvlhG_B-13">
          <mxGeometry relative="1" as="geometry" />
        </mxCell>
        <mxCell id="9ZjnTT0w3MI4GpvlhG_B-2" value="Listar clientes" style="rounded=0;whiteSpace=wrap;html=1;" vertex="1" parent="1">
          <mxGeometry x="200" y="50" width="120" height="60" as="geometry" />
        </mxCell>
        <mxCell id="9ZjnTT0w3MI4GpvlhG_B-7" style="edgeStyle=orthogonalEdgeStyle;rounded=0;orthogonalLoop=1;jettySize=auto;html=1;exitX=1;exitY=0.5;exitDx=0;exitDy=0;entryX=0;entryY=0.5;entryDx=0;entryDy=0;" edge="1" parent="1" source="9ZjnTT0w3MI4GpvlhG_B-4" target="9ZjnTT0w3MI4GpvlhG_B-6">
          <mxGeometry relative="1" as="geometry" />
        </mxCell>
        <mxCell id="9ZjnTT0w3MI4GpvlhG_B-4" value="Dados do cliente; Nome, telefone, endereço." style="rounded=0;whiteSpace=wrap;html=1;" vertex="1" parent="1">
          <mxGeometry x="414" y="180" width="120" height="60" as="geometry" />
        </mxCell>
        <mxCell id="9ZjnTT0w3MI4GpvlhG_B-6" value="Dados validos?" style="rhombus;whiteSpace=wrap;html=1;" vertex="1" parent="1">
          <mxGeometry x="550" y="170" width="80" height="80" as="geometry" />
        </mxCell>
        <mxCell id="9ZjnTT0w3MI4GpvlhG_B-21" style="edgeStyle=orthogonalEdgeStyle;rounded=0;orthogonalLoop=1;jettySize=auto;html=1;entryX=1;entryY=0.5;entryDx=0;entryDy=0;exitX=0;exitY=0.5;exitDx=0;exitDy=0;" edge="1" parent="1" source="9ZjnTT0w3MI4GpvlhG_B-10" target="9ZjnTT0w3MI4GpvlhG_B-20">
          <mxGeometry relative="1" as="geometry">
            <mxPoint x="195" y="240" as="sourcePoint" />
          </mxGeometry>
        </mxCell>
        <mxCell id="9ZjnTT0w3MI4GpvlhG_B-29" style="edgeStyle=orthogonalEdgeStyle;rounded=0;orthogonalLoop=1;jettySize=auto;html=1;exitX=0.75;exitY=1;exitDx=0;exitDy=0;entryX=0.5;entryY=0;entryDx=0;entryDy=0;" edge="1" parent="1" source="9ZjnTT0w3MI4GpvlhG_B-10" target="9ZjnTT0w3MI4GpvlhG_B-28">
          <mxGeometry relative="1" as="geometry" />
        </mxCell>
        <mxCell id="9ZjnTT0w3MI4GpvlhG_B-10" value="Buscar clientes" style="rounded=0;whiteSpace=wrap;html=1;" vertex="1" parent="1">
          <mxGeometry x="140" y="180" width="110" height="60" as="geometry" />
        </mxCell>
        <mxCell id="9ZjnTT0w3MI4GpvlhG_B-34" style="edgeStyle=orthogonalEdgeStyle;rounded=0;orthogonalLoop=1;jettySize=auto;html=1;exitX=1;exitY=0.5;exitDx=0;exitDy=0;entryX=0;entryY=0.5;entryDx=0;entryDy=0;" edge="1" parent="1" source="9ZjnTT0w3MI4GpvlhG_B-13" target="9ZjnTT0w3MI4GpvlhG_B-4">
          <mxGeometry relative="1" as="geometry" />
        </mxCell>
        <mxCell id="9ZjnTT0w3MI4GpvlhG_B-13" value="Cadastrar clientes" style="rounded=0;whiteSpace=wrap;html=1;" vertex="1" parent="1">
          <mxGeometry x="270" y="180" width="120" height="60" as="geometry" />
        </mxCell>
        <mxCell id="9ZjnTT0w3MI4GpvlhG_B-23" style="edgeStyle=orthogonalEdgeStyle;rounded=0;orthogonalLoop=1;jettySize=auto;html=1;exitX=0.5;exitY=1;exitDx=0;exitDy=0;entryX=0.5;entryY=0;entryDx=0;entryDy=0;" edge="1" parent="1" source="9ZjnTT0w3MI4GpvlhG_B-17" target="9ZjnTT0w3MI4GpvlhG_B-18">
          <mxGeometry relative="1" as="geometry" />
        </mxCell>
        <mxCell id="9ZjnTT0w3MI4GpvlhG_B-17" value="Apagar cliente" style="rounded=0;whiteSpace=wrap;html=1;" vertex="1" parent="1">
          <mxGeometry x="5" y="300" width="105" height="60" as="geometry" />
        </mxCell>
        <mxCell id="9ZjnTT0w3MI4GpvlhG_B-18" value="FIM" style="ellipse;whiteSpace=wrap;html=1;" vertex="1" parent="1">
          <mxGeometry x="2.5" y="400" width="110" height="70" as="geometry" />
        </mxCell>
        <mxCell id="9ZjnTT0w3MI4GpvlhG_B-22" value="Sim" style="edgeStyle=orthogonalEdgeStyle;rounded=0;orthogonalLoop=1;jettySize=auto;html=1;exitX=0.5;exitY=1;exitDx=0;exitDy=0;entryX=0.5;entryY=0;entryDx=0;entryDy=0;" edge="1" parent="1" source="9ZjnTT0w3MI4GpvlhG_B-20" target="9ZjnTT0w3MI4GpvlhG_B-17">
          <mxGeometry relative="1" as="geometry" />
        </mxCell>
        <mxCell id="9ZjnTT0w3MI4GpvlhG_B-27" value="Não" style="edgeStyle=orthogonalEdgeStyle;rounded=0;orthogonalLoop=1;jettySize=auto;html=1;exitX=1;exitY=1;exitDx=0;exitDy=0;entryX=0.25;entryY=1;entryDx=0;entryDy=0;" edge="1" parent="1" source="9ZjnTT0w3MI4GpvlhG_B-20" target="9ZjnTT0w3MI4GpvlhG_B-13">
          <mxGeometry x="-0.0297" relative="1" as="geometry">
            <Array as="points">
              <mxPoint x="78" y="250" />
              <mxPoint x="300" y="250" />
            </Array>
            <mxPoint as="offset" />
          </mxGeometry>
        </mxCell>
        <mxCell id="9ZjnTT0w3MI4GpvlhG_B-20" value="Encontrou cliente?" style="rhombus;whiteSpace=wrap;html=1;" vertex="1" parent="1">
          <mxGeometry x="17.5" y="170" width="80" height="80" as="geometry" />
        </mxCell>
        <mxCell id="9ZjnTT0w3MI4GpvlhG_B-33" style="edgeStyle=orthogonalEdgeStyle;rounded=0;orthogonalLoop=1;jettySize=auto;html=1;exitX=1;exitY=0.5;exitDx=0;exitDy=0;entryX=0;entryY=0.5;entryDx=0;entryDy=0;" edge="1" parent="1" source="9ZjnTT0w3MI4GpvlhG_B-24" target="9ZjnTT0w3MI4GpvlhG_B-32">
          <mxGeometry relative="1" as="geometry" />
        </mxCell>
        <mxCell id="9ZjnTT0w3MI4GpvlhG_B-24" value="Atualizar cliente" style="rounded=0;whiteSpace=wrap;html=1;" vertex="1" parent="1">
          <mxGeometry x="171.25" y="400" width="97.5" height="50" as="geometry" />
        </mxCell>
        <mxCell id="9ZjnTT0w3MI4GpvlhG_B-30" value="Não" style="edgeStyle=orthogonalEdgeStyle;rounded=0;orthogonalLoop=1;jettySize=auto;html=1;exitX=1;exitY=0.5;exitDx=0;exitDy=0;entryX=0.5;entryY=1;entryDx=0;entryDy=0;" edge="1" parent="1" source="9ZjnTT0w3MI4GpvlhG_B-28" target="9ZjnTT0w3MI4GpvlhG_B-13">
          <mxGeometry relative="1" as="geometry" />
        </mxCell>
        <mxCell id="9ZjnTT0w3MI4GpvlhG_B-31" value="Sim" style="edgeStyle=orthogonalEdgeStyle;rounded=0;orthogonalLoop=1;jettySize=auto;html=1;entryX=0.5;entryY=0;entryDx=0;entryDy=0;" edge="1" parent="1" source="9ZjnTT0w3MI4GpvlhG_B-28" target="9ZjnTT0w3MI4GpvlhG_B-24">
          <mxGeometry relative="1" as="geometry" />
        </mxCell>
        <mxCell id="9ZjnTT0w3MI4GpvlhG_B-28" value="Encontrou cliente?" style="rhombus;whiteSpace=wrap;html=1;" vertex="1" parent="1">
          <mxGeometry x="180" y="270" width="80" height="80" as="geometry" />
        </mxCell>
        <mxCell id="9ZjnTT0w3MI4GpvlhG_B-35" value="Não" style="edgeStyle=orthogonalEdgeStyle;rounded=0;orthogonalLoop=1;jettySize=auto;html=1;exitX=0;exitY=1;exitDx=0;exitDy=0;entryX=1;entryY=1;entryDx=0;entryDy=0;" edge="1" parent="1" source="9ZjnTT0w3MI4GpvlhG_B-32" target="9ZjnTT0w3MI4GpvlhG_B-24">
          <mxGeometry relative="1" as="geometry">
            <Array as="points">
              <mxPoint x="400" y="450" />
            </Array>
          </mxGeometry>
        </mxCell>
        <mxCell id="9ZjnTT0w3MI4GpvlhG_B-36" style="edgeStyle=orthogonalEdgeStyle;rounded=0;orthogonalLoop=1;jettySize=auto;html=1;entryX=1;entryY=0.5;entryDx=0;entryDy=0;" edge="1" parent="1" source="9ZjnTT0w3MI4GpvlhG_B-32" target="9ZjnTT0w3MI4GpvlhG_B-2">
          <mxGeometry relative="1" as="geometry">
            <Array as="points">
              <mxPoint x="680" y="425" />
              <mxPoint x="680" y="80" />
            </Array>
          </mxGeometry>
        </mxCell>
        <mxCell id="9ZjnTT0w3MI4GpvlhG_B-37" value="Sim" style="edgeLabel;html=1;align=center;verticalAlign=middle;resizable=0;points=[];" vertex="1" connectable="0" parent="9ZjnTT0w3MI4GpvlhG_B-36">
          <mxGeometry x="-0.8681" y="2" relative="1" as="geometry">
            <mxPoint as="offset" />
          </mxGeometry>
        </mxCell>
        <mxCell id="9ZjnTT0w3MI4GpvlhG_B-32" value="Dados validos?" style="rhombus;whiteSpace=wrap;html=1;" vertex="1" parent="1">
          <mxGeometry x="380" y="385" width="80" height="80" as="geometry" />
        </mxCell>
      </root>
    </mxGraphModel>
  </diagram>
</mxfile>
